<?xml version="1.0" encoding="UTF-8"?>
<svg xmlns="http://www.w3.org/2000/svg" viewBox="0 0 1080 1080">
  <polygon fill="#002f87" points="586.51 165.83 586.51 558.38 469.69 922.82 223.07 922.82 490.24 165.83 586.51 165.83"></polygon>
  <path fill="#002f87" d="M387.48,122.58c.34-2.97,3.79-18.6,4.54-19.25,2.86-2.5,50.1,2.17,58.29-1.21,4.73-7.08,19.69-60.99,22.87-61.87,2.13-.59,20.34-.15,20.34,1.24l-21.66,61.61h114.66v19.47h-123.31L162.5,966.07h338.56l42.1-113.64c1.59-1.06,20.9-3.69,19.53,2.18l-38.91,111.46h62.74l-5.64,19.6-65.53.09c-2.15,6.68-16.09,53.23-18.85,53.99-2.13.59-20.35.14-20.34-1.24l19.5-52.96H157.09c-10.44,11.27-12.82,42.05-20.31,52.79-2.24,3.21-17.06.37-21.88,1.26l19.47-54.05h-56.25c.03-4.45,4.3-17.96,7.86-19.18,10.6-3.63,38.5,2.11,51.63-.28,3.25-.59,4.82-1.77,5.9-4.91L443.73,122.58h-56.25Z"></path>
  <path fill="#ff671d" d="M737.95,165.83c-1.18,2.76,2.16,6.41,2.16,7.57v693.18l-15.19-39.97-86.49-270.39V165.83h99.51Z"></path>
  <path fill="#ff671d" d="M872.07,922.82h-101.68V265.32c3.14-.49,2.84,3.63,3.76,5.95,35.95,90.7,62,187.47,97.91,278.46v373.09Z"></path>
  <polygon fill="#ffb71b" points="1001.87 922.82 902.36 922.82 902.36 639.49 1001.87 922.82"></polygon>
</svg>