<?xml version="1.0" encoding="UTF-8"?>
<svg id="Capa_1" data-name="Capa 1" xmlns="http://www.w3.org/2000/svg" viewBox="0 0 1920 450">
  <defs>
    <style>
      .cls-1 {
        fill: #fff;
      }

      .cls-2 {
        fill: none;
      }

      .cls-3 {
        fill: #f4b223;
      }

      .cls-4 {
        fill: #ff671d;
      }

      .cls-5 {
        fill: #ee7623;
      }
    </style>
  </defs>
  <path class="cls-1" d="M543.74,318.81h33.18c16.93,0,26.15,8.09,26.15,23.28s-9.22,23.2-26.15,23.2h-18.14v17.01h-15.04v-63.48ZM575.93,352.67c7.41,0,12.02-3.55,12.02-10.58s-4.61-10.66-12.02-10.66h-17.16v21.24h17.16Z"/>
  <path class="cls-1" d="M665.95,371.63h-31.29l-3.93,10.66h-15.57l24.56-63.48h21.16l24.64,63.48h-15.64l-3.93-10.66ZM661.72,360.22l-9.98-27.13h-2.87l-9.98,27.13h22.82Z"/>
  <polygon class="cls-1" points="756.35 331.43 732.54 331.43 732.54 382.29 717.43 382.29 717.43 331.43 693.69 331.43 693.69 318.81 756.35 318.81 756.35 331.43"/>
  <rect class="cls-1" x="779.63" y="318.81" width="15.04" height="63.48"/>
  <path class="cls-1" d="M817.27,350.55c0-19.95,14.13-33.86,34.84-33.86s34.92,13.91,34.92,33.86-14.13,33.86-34.92,33.86-34.84-13.91-34.84-33.86M872.07,350.55c0-12.47-8.62-20.78-19.95-20.78s-19.95,8.31-19.95,20.78,8.69,20.78,19.95,20.78,19.95-8.31,19.95-20.78"/>
  <path class="cls-1" d="M944.85,350.55c0-19.95,14.21-33.86,34.76-33.86,13.91,0,28.19,6.2,31.29,24.86h-14.44c-2.72-8.16-8.99-11.79-16.85-11.79-11.26,0-19.88,8.54-19.88,20.78s8.61,20.78,19.88,20.78c7.86,0,14.13-3.63,16.85-11.87h14.44c-3.1,18.74-17.23,24.94-31.29,24.94-20.56,0-34.76-13.91-34.76-33.86"/>
  <path class="cls-1" d="M1032.61,350.55c0-19.95,14.13-33.86,34.84-33.86s34.92,13.91,34.92,33.86-14.13,33.86-34.92,33.86-34.84-13.91-34.84-33.86M1087.4,350.55c0-12.47-8.62-20.78-19.95-20.78s-19.95,8.31-19.95,20.78,8.69,20.78,19.95,20.78,19.95-8.31,19.95-20.78"/>
  <polygon class="cls-1" points="1124.96 318.81 1142.42 318.81 1171.9 361.51 1173.33 361.51 1173.33 318.81 1188.07 318.81 1188.07 382.29 1170.91 382.29 1141.06 339.59 1139.7 339.59 1139.7 382.29 1124.96 382.29 1124.96 318.81"/>
  <path class="cls-1" d="M1210.22,362.64h13.6c.53,5.97,5.44,9.75,15.87,9.82,9.83,0,15.19-3.32,15.19-8.31,0-4.38-3.55-6.58-11.11-7.86l-7.86-1.36c-12.02-2.12-23.96-5.29-23.96-19.12,0-12.02,10.13-19.12,27.89-19.12,16.55,0,28.04,5.82,28.19,21.54h-13.53c-.98-5.74-5.44-9.6-14.96-9.6-8.62,0-13.15,2.95-13.15,7.86,0,3.85,3.1,6.27,9.6,7.48l6.88,1.21c12.09,2.19,26.98,4.23,26.98,19.42,0,12.62-10.35,19.8-30.15,19.8s-29.55-6.88-29.48-21.77"/>
  <polygon class="cls-1" points="1351.1 331.43 1327.3 331.43 1327.3 382.29 1312.18 382.29 1312.18 331.43 1288.45 331.43 1288.45 318.81 1351.1 318.81 1351.1 331.43"/>
  <path class="cls-1" d="M1420.34,382.29l-10.43-18.89h-20.48v18.89h-15.04v-63.48h33.33c17,0,26,7.94,26,22.75,0,8.84-4.31,15.27-10.81,18.82l12.4,21.91h-14.97ZM1389.43,351.84h17.46c7.63,0,11.87-3.48,11.87-10.2s-4.23-10.2-11.87-10.2h-17.46v20.41Z"/>
  <path class="cls-1" d="M1457.22,355.84v-37.03h15.19v36.65c0,10.13,5.06,16.25,15.42,16.25s15.49-6.12,15.49-16.25v-36.65h15.11v37.03c0,19.35-11.03,28.57-30.61,28.57s-30.61-9.22-30.61-28.57"/>
  <path class="cls-1" d="M1540.97,350.55c0-19.95,14.21-33.86,34.76-33.86,13.91,0,28.19,6.2,31.29,24.86h-14.44c-2.72-8.16-8.99-11.79-16.85-11.79-11.26,0-19.88,8.54-19.88,20.78s8.61,20.78,19.88,20.78c7.86,0,14.13-3.63,16.85-11.87h14.44c-3.1,18.74-17.23,24.94-31.29,24.94-20.56,0-34.76-13.91-34.76-33.86"/>
  <polygon class="cls-1" points="1689.41 331.43 1665.6 331.43 1665.6 382.29 1650.49 382.29 1650.49 331.43 1626.76 331.43 1626.76 318.81 1689.41 318.81 1689.41 331.43"/>
  <path class="cls-1" d="M1706.73,350.55c0-19.95,14.13-33.86,34.84-33.86s34.92,13.91,34.92,33.86-14.13,33.86-34.92,33.86-34.84-13.91-34.84-33.86M1761.52,350.55c0-12.47-8.62-20.78-19.95-20.78s-19.95,8.31-19.95,20.78,8.69,20.78,19.95,20.78,19.95-8.31,19.95-20.78"/>
  <path class="cls-1" d="M1845.03,382.29l-10.43-18.89h-20.48v18.89h-15.04v-63.48h33.33c17,0,26,7.94,26,22.75,0,8.84-4.31,15.27-10.8,18.82l12.39,21.91h-14.97ZM1814.13,351.84h17.46c7.63,0,11.86-3.48,11.86-10.2s-4.23-10.2-11.86-10.2h-17.46v20.41Z"/>
  <polygon class="cls-1" points="556.65 65.59 736.46 65.59 736.46 118.33 622.44 118.33 622.44 143.74 732.19 143.74 732.19 186.98 622.44 186.98 622.44 212.39 736.46 212.39 736.46 265.13 556.65 265.13 556.65 65.59"/>
  <polygon class="cls-1" points="760.21 65.59 826.01 65.59 826.01 210.25 932.43 210.25 932.43 265.13 760.21 265.13 760.21 65.59"/>
  <polygon class="cls-4" points="1203.38 65.59 1269.18 65.59 1269.18 210.25 1375.6 210.25 1375.6 265.13 1203.38 265.13 1203.38 65.59"/>
  <path class="cls-4" d="M1604.58,208.83c0,32.07-22.57,56.3-85.04,56.3h-120.19V65.59h123.52c60.34,0,76.49,26.6,76.49,52.97,0,22.56-11.64,32.3-25.65,39.9v3.8c19.24,9.74,30.88,23.75,30.88,46.56M1465.15,115.95v29.93h50.83c15.44,0,20.43-7.6,20.43-14.73,0-7.6-4.98-15.2-20.43-15.2h-50.83ZM1538.07,197.9c0-7.6-5.22-16.15-20.67-16.15h-52.26v33.02h52.26c15.44,0,20.67-9.5,20.67-16.87"/>
  <polygon class="cls-4" points="1113.37 65.59 1021.2 65.59 947.8 265.13 1015.74 265.13 1061.58 127.35 1072.98 127.35 1093.89 190.06 1064.51 190.06 1048.33 238.76 1110.04 238.76 1118.83 265.13 1186.77 265.13 1113.37 65.59"/>
  <polygon class="cls-4" points="1774.89 65.59 1682.73 65.59 1609.33 265.13 1677.27 265.13 1723.11 127.35 1734.51 127.35 1755.42 190.06 1726.01 190.06 1709.83 238.76 1771.57 238.76 1780.36 265.13 1848.3 265.13 1774.89 65.59"/>
  <polygon class="cls-1" points="232.37 68.41 120.76 384.95 224.06 384.95 273.38 230.22 273.38 68.41 232.37 68.41"/>
  <polyline class="cls-1" points="62.84 403.26 273.38 403.26 270.68 411.15 60 411.15"/>
  <polyline class="cls-1" points="75.88 433.68 225.59 16.32 233.97 16.32 84.26 433.68"/>
  <polygon class="cls-1" points="273.38 49.8 189.63 49.8 192.46 41.92 273.38 41.92 273.38 49.8"/>
  <polygon class="cls-1" points="227.17 433.68 235.56 433.68 263.57 355.58 255.19 355.58 227.17 433.68"/>
  <polygon class="cls-2" points="392.49 228.37 392.49 384.95 405.81 384.95 405.81 266.15 392.49 228.37"/>
  <polygon class="cls-2" points="337.28 71.79 337.28 362.68 344.4 384.95 350.6 384.95 350.6 109.57 337.28 71.79"/>
  <polygon class="cls-4" points="336.09 68.41 295.08 68.41 295.08 230.22 337.28 362.68 337.28 71.79 336.09 68.41"/>
  <polygon class="cls-5" points="350.6 109.57 350.6 384.95 392.49 384.95 392.49 228.37 350.6 109.57"/>
  <polygon class="cls-3" points="405.81 384.95 447.69 384.95 405.81 266.15 405.81 384.95"/>
</svg>