<?xml version="1.0" encoding="UTF-8"?>
<svg id="Capa_1" data-name="Capa 1" xmlns="http://www.w3.org/2000/svg" viewBox="0 0 1920 465.05">
  <defs>
    <style>
      .cls-1 {
        fill: #002f87;
      }

      .cls-2 {
        fill: #ff671d;
      }
    </style>
  </defs>
  <path class="cls-1" d="M0,369.36h48.4c24.69,0,38.14,11.8,38.14,33.95s-13.45,33.84-38.14,33.84h-26.46v24.81H0v-92.6ZM46.96,418.75c10.8,0,17.53-5.18,17.53-15.44s-6.73-15.54-17.53-15.54h-25.03v30.98h25.03Z"/>
  <path class="cls-1" d="M178.27,446.42h-45.64l-5.73,15.54h-22.71l35.83-92.6h30.87l35.94,92.6h-22.82l-5.73-15.54ZM172.1,429.77l-14.55-39.58h-4.19l-14.55,39.58h33.29Z"/>
  <polygon class="cls-1" points="310.13 387.77 275.4 387.77 275.4 461.96 253.35 461.96 253.35 387.77 218.74 387.77 218.74 369.36 310.13 369.36 310.13 387.77"/>
  <rect class="cls-1" x="344.09" y="369.36" width="21.94" height="92.6"/>
  <path class="cls-1" d="M399,415.66c0-29.1,20.61-49.39,50.82-49.39s50.93,20.28,50.93,49.39-20.61,49.39-50.93,49.39-50.82-20.28-50.82-49.39M478.92,415.66c0-18.19-12.57-30.32-29.1-30.32s-29.1,12.13-29.1,30.32,12.67,30.32,29.1,30.32,29.1-12.13,29.1-30.32"/>
  <path class="cls-1" d="M585.1,415.66c0-29.1,20.72-49.39,50.71-49.39,20.28,0,41.12,9.04,45.64,36.27h-21.06c-3.97-11.9-13.12-17.2-24.58-17.2-16.43,0-28.99,12.46-28.99,30.32s12.56,30.32,28.99,30.32c11.47,0,20.61-5.29,24.58-17.31h21.06c-4.52,27.34-25.14,36.38-45.64,36.38-29.99,0-50.71-20.28-50.71-49.39"/>
  <path class="cls-1" d="M713.1,415.66c0-29.1,20.61-49.39,50.82-49.39s50.93,20.28,50.93,49.39-20.61,49.39-50.93,49.39-50.82-20.28-50.82-49.39M793.02,415.66c0-18.19-12.57-30.32-29.1-30.32s-29.1,12.13-29.1,30.32,12.67,30.32,29.1,30.32,29.1-12.13,29.1-30.32"/>
  <polygon class="cls-1" points="847.82 369.36 873.29 369.36 916.28 431.65 918.38 431.65 918.38 369.36 939.87 369.36 939.87 461.96 914.85 461.96 871.3 399.68 869.32 399.68 869.32 461.96 847.82 461.96 847.82 369.36"/>
  <path class="cls-1" d="M972.18,433.3h19.84c.77,8.71,7.94,14.22,23.15,14.33,14.33,0,22.16-4.85,22.16-12.13,0-6.39-5.18-9.59-16.2-11.47l-11.47-1.98c-17.53-3.09-34.95-7.72-34.95-27.89,0-17.53,14.77-27.89,40.68-27.89,24.14,0,40.9,8.49,41.12,31.42h-19.73c-1.43-8.38-7.94-14-21.83-14-12.57,0-19.18,4.3-19.18,11.47,0,5.62,4.52,9.15,14,10.91l10.03,1.77c17.64,3.2,39.36,6.17,39.36,28.33,0,18.41-15.1,28.88-43.98,28.88s-43.11-10.03-43-31.75"/>
  <polygon class="cls-1" points="1177.69 387.77 1142.96 387.77 1142.96 461.96 1120.91 461.96 1120.91 387.77 1086.3 387.77 1086.3 369.36 1177.69 369.36 1177.69 387.77"/>
  <path class="cls-1" d="M1278.67,461.96l-15.21-27.56h-29.88v27.56h-21.94v-92.6h48.62c24.8,0,37.92,11.58,37.92,33.19,0,12.9-6.28,22.27-15.76,27.45l18.08,31.97h-21.83ZM1233.58,417.54h25.47c11.14,0,17.31-5.07,17.31-14.88s-6.18-14.89-17.31-14.89h-25.47v29.77Z"/>
  <path class="cls-1" d="M1332.48,423.38v-54.02h22.16v53.47c0,14.77,7.38,23.7,22.49,23.7s22.6-8.93,22.6-23.7v-53.47h22.05v54.02c0,28.22-16.09,41.67-44.65,41.67s-44.65-13.45-44.65-41.67"/>
  <path class="cls-1" d="M1454.64,415.66c0-29.1,20.72-49.39,50.71-49.39,20.28,0,41.12,9.04,45.64,36.27h-21.06c-3.97-11.9-13.12-17.2-24.58-17.2-16.43,0-28.99,12.46-28.99,30.32s12.56,30.32,28.99,30.32c11.47,0,20.61-5.29,24.58-17.31h21.06c-4.52,27.34-25.14,36.38-45.64,36.38-29.99,0-50.71-20.28-50.71-49.39"/>
  <polygon class="cls-1" points="1671.16 387.77 1636.44 387.77 1636.44 461.96 1614.39 461.96 1614.39 387.77 1579.78 387.77 1579.78 369.36 1671.16 369.36 1671.16 387.77"/>
  <path class="cls-1" d="M1696.42,415.66c0-29.1,20.61-49.39,50.82-49.39s50.93,20.28,50.93,49.39-20.61,49.39-50.93,49.39-50.82-20.28-50.82-49.39M1776.35,415.66c0-18.19-12.57-30.32-29.1-30.32s-29.1,12.13-29.1,30.32,12.67,30.32,29.1,30.32,29.1-12.13,29.1-30.32"/>
  <path class="cls-1" d="M1898.17,461.96l-15.21-27.56h-29.87v27.56h-21.94v-92.6h48.62c24.8,0,37.92,11.58,37.92,33.19,0,12.9-6.28,22.27-15.76,27.45l18.08,31.97h-21.83ZM1853.09,417.54h25.46c11.13,0,17.31-5.07,17.31-14.88s-6.18-14.89-17.31-14.89h-25.46v29.77Z"/>
  <polygon class="cls-1" points="18.83 0 281.12 0 281.12 76.92 114.81 76.92 114.81 114 274.89 114 274.89 177.06 114.81 177.06 114.81 214.13 281.12 214.13 281.12 291.05 18.83 291.05 18.83 0"/>
  <polygon class="cls-1" points="315.76 0 411.74 0 411.74 211.01 566.97 211.01 566.97 291.05 315.76 291.05 315.76 0"/>
  <polygon class="cls-2" points="962.21 0 1058.19 0 1058.19 211.01 1213.41 211.01 1213.41 291.05 962.21 291.05 962.21 0"/>
  <path class="cls-2" d="M1547.43,208.93c0,46.78-32.92,82.12-124.05,82.12h-175.32V0h180.17c88.01,0,111.57,38.81,111.57,77.27,0,32.91-16.98,47.12-37.42,58.21v5.55c28.06,14.2,45.05,34.65,45.05,67.91M1344.04,73.46v43.66h74.15c22.53,0,29.8-11.09,29.8-21.48,0-11.09-7.27-22.18-29.8-22.18h-74.15ZM1450.41,193c0-11.09-7.62-23.56-30.14-23.56h-76.23v48.16h76.23c22.52,0,30.14-13.86,30.14-24.6"/>
  <polygon class="cls-2" points="830.9 0 696.46 0 589.4 291.05 688.49 291.05 755.37 90.09 772 90.09 802.49 181.56 759.63 181.56 736.03 252.59 826.05 252.59 838.87 291.05 937.97 291.05 830.9 0"/>
  <polygon class="cls-2" points="1795.86 0 1661.42 0 1554.36 291.05 1653.45 291.05 1720.33 90.09 1736.96 90.09 1767.45 181.56 1724.56 181.56 1700.96 252.59 1791.01 252.59 1803.83 291.05 1902.93 291.05 1795.86 0"/>
</svg>