<?xml version="1.0" encoding="UTF-8"?>
<svg id="Capa_1" data-name="Capa 1" xmlns="http://www.w3.org/2000/svg" viewBox="0 0 1681.93 1080">
  <defs>
    <style>
      .cls-1 {
        fill: none;
      }

      .cls-2 {
        fill: #f4b223;
      }

      .cls-3 {
        fill: #002f87;
      }

      .cls-4 {
        fill: #ff671d;
      }

      .cls-5 {
        fill: #ee7623;
      }
    </style>
  </defs>
  <g>
    <g>
      <path class="cls-3" d="M0,996.18h42.4c21.63,0,33.41,10.33,33.41,29.74s-11.78,29.65-33.41,29.65h-23.18v21.73H0v-81.12ZM41.14,1039.44c9.46,0,15.35-4.54,15.35-13.52s-5.89-13.62-15.35-13.62h-21.92v27.14h21.92Z"/>
      <path class="cls-3" d="M156.17,1063.68h-39.98l-5.02,13.62h-19.89l31.39-81.12h27.04l31.48,81.12h-19.99l-5.02-13.62ZM150.76,1049.1l-12.75-34.67h-3.67l-12.75,34.67h29.16Z"/>
      <polygon class="cls-3" points="271.67 1012.3 241.25 1012.3 241.25 1077.3 221.94 1077.3 221.94 1012.3 191.62 1012.3 191.62 996.18 271.67 996.18 271.67 1012.3"/>
      <rect class="cls-3" x="301.43" y="996.17" width="19.22" height="81.12"/>
      <path class="cls-3" d="M349.53,1036.74c0-25.49,18.06-43.26,44.52-43.26s44.62,17.77,44.62,43.26-18.06,43.26-44.62,43.26-44.52-17.77-44.52-43.26M419.54,1036.74c0-15.94-11.01-26.56-25.49-26.56s-25.49,10.62-25.49,26.56,11.1,26.56,25.49,26.56,25.49-10.62,25.49-26.56"/>
      <path class="cls-3" d="M512.55,1036.74c0-25.49,18.15-43.26,44.42-43.26,17.77,0,36.02,7.92,39.98,31.77h-18.45c-3.48-10.43-11.49-15.07-21.54-15.07-14.39,0-25.4,10.91-25.4,26.56s11.01,26.56,25.4,26.56c10.04,0,18.06-4.64,21.54-15.16h18.45c-3.96,23.95-22.02,31.87-39.98,31.87-26.27,0-44.42-17.77-44.42-43.26"/>
      <path class="cls-3" d="M624.68,1036.74c0-25.49,18.06-43.26,44.52-43.26s44.62,17.77,44.62,43.26-18.06,43.26-44.62,43.26-44.52-17.77-44.52-43.26M694.69,1036.74c0-15.94-11.01-26.56-25.49-26.56s-25.49,10.62-25.49,26.56,11.1,26.56,25.49,26.56,25.49-10.62,25.49-26.56"/>
      <polygon class="cls-3" points="742.7 996.18 765.01 996.18 802.67 1050.74 804.5 1050.74 804.5 996.18 823.33 996.18 823.33 1077.3 801.41 1077.3 763.27 1022.73 761.53 1022.73 761.53 1077.3 742.7 1077.3 742.7 996.18"/>
      <path class="cls-3" d="M851.64,1052.19h17.38c.68,7.63,6.95,12.46,20.28,12.55,12.55,0,19.41-4.25,19.41-10.62,0-5.6-4.54-8.4-14.2-10.04l-10.04-1.74c-15.35-2.7-30.61-6.76-30.61-24.44,0-15.35,12.94-24.43,35.63-24.43,21.15,0,35.83,7.44,36.02,27.52h-17.29c-1.26-7.34-6.95-12.27-19.12-12.27-11.01,0-16.8,3.77-16.8,10.04,0,4.93,3.96,8.01,12.26,9.56l8.79,1.55c15.45,2.8,34.48,5.41,34.48,24.82,0,16.13-13.23,25.3-38.53,25.3s-37.76-8.79-37.66-27.81"/>
      <polygon class="cls-3" points="1031.66 1012.3 1001.24 1012.3 1001.24 1077.3 981.93 1077.3 981.93 1012.3 951.6 1012.3 951.6 996.18 1031.66 996.18 1031.66 1012.3"/>
      <path class="cls-3" d="M1120.12,1077.29l-13.33-24.14h-26.17v24.14h-19.22v-81.12h42.59c21.73,0,33.22,10.14,33.22,29.07,0,11.3-5.5,19.51-13.81,24.05l15.84,28h-19.12ZM1080.63,1038.38h22.31c9.75,0,15.17-4.44,15.17-13.04s-5.41-13.04-15.17-13.04h-22.31v26.08Z"/>
      <path class="cls-3" d="M1167.26,1043.5v-47.32h19.41v46.84c0,12.94,6.47,20.77,19.7,20.77s19.8-7.83,19.8-20.77v-46.84h19.31v47.32c0,24.72-14.1,36.5-39.11,36.5s-39.11-11.78-39.11-36.5"/>
      <path class="cls-3" d="M1274.27,1036.74c0-25.49,18.15-43.26,44.42-43.26,17.77,0,36.02,7.92,39.98,31.77h-18.45c-3.48-10.43-11.49-15.07-21.54-15.07-14.39,0-25.4,10.91-25.4,26.56s11.01,26.56,25.4,26.56c10.04,0,18.06-4.64,21.54-15.16h18.45c-3.96,23.95-22.02,31.87-39.98,31.87-26.27,0-44.42-17.77-44.42-43.26"/>
      <polygon class="cls-3" points="1463.95 1012.3 1433.53 1012.3 1433.53 1077.3 1414.22 1077.3 1414.22 1012.3 1383.89 1012.3 1383.89 996.18 1463.95 996.18 1463.95 1012.3"/>
      <path class="cls-3" d="M1486.08,1036.74c0-25.49,18.06-43.26,44.52-43.26s44.62,17.77,44.62,43.26-18.06,43.26-44.62,43.26-44.52-17.77-44.52-43.26M1556.09,1036.74c0-15.94-11.01-26.56-25.49-26.56s-25.49,10.62-25.49,26.56,11.1,26.56,25.49,26.56,25.49-10.62,25.49-26.56"/>
      <path class="cls-3" d="M1662.81,1077.29l-13.32-24.14h-26.17v24.14h-19.22v-81.12h42.59c21.73,0,33.22,10.14,33.22,29.07,0,11.3-5.5,19.51-13.81,24.05l15.84,28h-19.12ZM1623.31,1038.38h22.31c9.75,0,15.16-4.44,15.16-13.04s-5.41-13.04-15.16-13.04h-22.31v26.08Z"/>
    </g>
    <g>
      <polygon class="cls-3" points="16.5 672.61 246.27 672.61 246.27 740 100.57 740 100.57 772.48 240.8 772.48 240.8 827.72 100.57 827.72 100.57 860.2 246.27 860.2 246.27 927.58 16.5 927.58 16.5 672.61"/>
      <polygon class="cls-3" points="276.61 672.61 360.69 672.61 360.69 857.46 496.67 857.46 496.67 927.58 276.61 927.58 276.61 672.61"/>
      <polygon class="cls-4" points="842.9 672.61 926.98 672.61 926.98 857.46 1062.96 857.46 1062.96 927.58 842.9 927.58 842.9 672.61"/>
      <path class="cls-4" d="M1355.56,855.64c0,40.98-28.84,71.94-108.67,71.94h-153.58v-254.96h157.83c77.1,0,97.74,34,97.74,67.69,0,28.83-14.87,41.28-32.78,50.99v4.86c24.58,12.44,39.46,30.35,39.46,59.49M1177.38,736.96v38.25h64.96c19.73,0,26.1-9.71,26.1-18.82,0-9.72-6.37-19.43-26.1-19.43h-64.96ZM1270.57,841.68c0-9.71-6.68-20.64-26.41-20.64h-66.78v42.19h66.78c19.73,0,26.41-12.14,26.41-21.55"/>
      <polygon class="cls-4" points="727.88 672.61 610.1 672.61 516.32 927.58 603.12 927.58 661.71 751.53 676.27 751.53 702.99 831.66 665.44 831.66 644.77 893.89 723.63 893.89 734.86 927.58 821.67 927.58 727.88 672.61"/>
      <polygon class="cls-4" points="1573.18 672.61 1455.42 672.61 1361.62 927.58 1448.44 927.58 1507.01 751.53 1521.58 751.53 1548.29 831.66 1510.72 831.66 1490.05 893.89 1568.94 893.89 1580.17 927.58 1666.98 927.58 1573.18 672.61"/>
    </g>
  </g>
  <g>
    <polygon class="cls-3" points="787.81 66.55 645.2 471.03 777.2 471.03 840.21 273.32 840.21 66.55 787.81 66.55"/>
    <polyline class="cls-3" points="571.19 494.43 840.21 494.43 836.77 504.51 567.56 504.51"/>
    <polyline class="cls-3" points="587.85 533.29 779.15 0 789.86 0 598.56 533.29"/>
    <polygon class="cls-3" points="840.21 42.78 733.2 42.78 736.82 32.7 840.21 32.7 840.21 42.78"/>
    <polygon class="cls-3" points="781.17 533.29 791.89 533.29 827.68 433.51 816.97 433.51 781.17 533.29"/>
    <g>
      <polygon class="cls-1" points="992.41 270.95 992.41 471.03 1009.43 471.03 1009.43 319.22 992.41 270.95"/>
      <polygon class="cls-1" points="921.87 70.88 921.87 442.57 930.96 471.03 938.89 471.03 938.89 119.15 921.87 70.88"/>
      <polygon class="cls-4" points="920.34 66.55 867.95 66.55 867.95 273.32 921.87 442.57 921.87 70.88 920.34 66.55"/>
      <polygon class="cls-5" points="938.89 119.15 938.89 471.03 992.41 471.03 992.41 270.95 938.89 119.15"/>
      <polygon class="cls-2" points="1009.43 471.03 1062.96 471.03 1009.43 319.22 1009.43 471.03"/>
    </g>
  </g>
</svg>